<?xml version="1.0" encoding="UTF-8"?>
<svg  viewBox="0 0 72 72" version="1.1" xmlns="http://www.w3.org/2000/svg" xmlns:xlink="http://www.w3.org/1999/xlink">
    <!-- Generator: Sketch 49.2 (51160) - http://www.bohemiancoding.com/sketch -->
    <title>Apple</title>
    <desc>Created with Sketch.</desc>
    <defs></defs>
    <g id="Page-1" stroke="none" stroke-width="1" fill="none" fill-rule="evenodd">
        <g id="Social-Icons---Circle" transform="translate(-40.000000, -939.000000)">
            <g id="Apple" transform="translate(40.000000, 939.000000)">
                <path d="M36,72 L36,72 C55.882251,72 72,55.882251 72,36 L72,36 C72,16.117749 55.882251,-3.65231026e-15 36,0 L36,0 C16.117749,3.65231026e-15 -2.4348735e-15,16.117749 0,36 L0,36 C2.4348735e-15,55.882251 16.117749,72 36,72 Z" id="Oval" fill="#F6BD60"></path>
                <path d="M42.1747352,19.792499 C43.7401771,17.7716988 44.9268831,14.9154841 44.497649,12 C41.9390773,12.1778078 38.948466,13.8147689 37.2034752,15.9484629 C35.6127843,17.8817703 34.3054439,20.7577415 34.816036,23.5490423 C37.6130711,23.6365351 40.4998807,21.9600612 42.1747352,19.792499 L42.1747352,19.792499 Z M56,47.217241 C54.8806249,49.7121954 54.3419782,50.8270223 52.8999761,53.0369197 C50.8884674,56.1217446 48.052156,59.9629583 44.5341199,59.9911818 C41.4116524,60.02505 40.6064879,57.9449805 36.3674507,57.9703816 C32.1284135,57.9929604 31.2446963,60.0306946 28.116618,59.9996488 C24.6013873,59.968603 21.9137648,56.5027614 19.9022561,53.4179365 C14.2745205,44.79849 13.6825702,34.6803774 17.1529137,29.2981624 C19.6217109,25.4767051 23.5156776,23.2414066 27.1739863,23.2414066 C30.8968204,23.2414066 33.2393723,25.2960749 36.3225635,25.2960749 C39.3131747,25.2960749 41.1339127,23.2357619 45.4402807,23.2357619 C48.7002153,23.2357619 52.1537261,25.0223073 54.6113015,28.1043098 C46.5540449,32.5466833 47.8585799,44.1211268 56,47.217241 L56,47.217241 Z" fill="#FFFFFF"></path>
            </g>
        </g>
    </g>
</svg>